# xmcd CD database file
#
# Track frame offsets:
#	150
#	12422
#	34807
#	47655
#	67832
#	83245
#	113942
#	133222
#	153664
#	177982
#	216522
#	241149
#	260911
#	278506
#	289673
#
# Disc length: 4048 seconds
#
# Revision: 2
# Processed by: cddbd v1.5.2PL0 Copyright (c) Steve Scherf et al.
# Submitted via: CDex 1.51
#
DISCID=de0fce0f
DTITLE=Edvard Grieg - Orchestral works Vol.4 - Choral works
DYEAR=1900
DGENRE=Classique
TTITLE0=Two Elegiac Melodies Op.34 - The wounded heart  [Academy of St Martin-in-the-Fields Chamber Ensemble]
TTITLE1=Two Elegiac Melodies Op.34 - Last spring
TTITLE2=Suite from ''Holberg's Time'' for String Orchestra Op.40 - Prelude - allegro vivace  [Israel Chamber Orchestra]
TTITLE3=Suite from ''Holberg's Time'' for String Orchestra Op.40 - Sarabande - andante
TTITLE4=Suite from ''Holberg's Time'' for String Orchestra Op.40 - Gavotte - allegretto - Musette - poco piu mosso
TTITLE5=Suite from ''Holberg's Time'' for String Orchestra Op.40 - Air - andante religioso
TTITLE6=Suite from ''Holberg's Time'' for String Orchestra Op.40 - Rigaudon - allegro con brio
TTITLE7=Four hymns, for Baryton solo and Mixed Chorus Op.74 - Hvad est du dog skön [Danish National Radio Choir]
TTITLE8=Four hymns, for Baryton solo and Mixed Chorus Op.74 - Guds skön har gjort mig fri
TTITLE9=Four hymns, for Baryton solo and Mixed Chorus Op.74 - Jesus Kristus er opfaren
TTITLE10=Four hymns, for Baryton solo and Mixed Chorus Op.74 - I Himmelen, i Himmelen
TTITLE11=Two religious choruses - Blegnet, segnet!
TTITLE12=Two religious choruses - Ave maris stella
TTITLE13=Den store, hvide flok vis e, for baritone solo and male chorus, Op.30 N°10
TTITLE14=Dona nobis pacem
EXTD=
EXTT0=
EXTT1=
EXTT2=
EXTT3=
EXTT4=
EXTT5=
EXTT6=
EXTT7=
EXTT8=
EXTT9=
EXTT10=
EXTT11=
EXTT12=
EXTT13=
EXTT14=
PLAYORDER=
